# xmcd CD database file
#
# Track frame offsets:
#	150
#	10555
#	30665
#	56972
#	77390
#	93957
#	109499
#	131130
#	145722
#	162326
#	185289
#
# Disc length: 2749 seconds
#
# Revision: 2
# Processed by: cddbd v1.5.2PL0 Copyright (c) Steve Scherf et al.
# Submitted via: CDex 1.70beta2
#
DISCID=880abb0b
DTITLE=Gackt - DIABOLOS
DYEAR=2005
DGENRE=Rock
TTITLE0=Misty
TTITLE1=Farewell
TTITLE2=Noesis
TTITLE3=Ash
TTITLE4=Metamorphoze
TTITLE5=Disper
TTITLE6=Future
TTITLE7=Black Stone
TTITLE8=Storm
TTITLE9=Road
TTITLE10=届カナイ愛ト知ッテイタノニ抑エキレズニ愛シ続ケタ…
EXTD=YEAR: 2005
EXTT0=
EXTT1=
EXTT2=
EXTT3=
EXTT4=
EXTT5=
EXTT6=
EXTT7=
EXTT8=
EXTT9=
EXTT10=
PLAYORDER=
